<?xml version="1.0" encoding="UTF-8" standalone="no"?>
<svg
   id="canvas"
   viewBox="373.248 585.179 1570.291 269.020"
   version="1.1"
   sodipodi:docname="level_completed.svg"
   inkscape:version="1.1.2 (0a00cf5339, 2022-02-04)"
   xmlns:inkscape="http://www.inkscape.org/namespaces/inkscape"
   xmlns:sodipodi="http://sodipodi.sourceforge.net/DTD/sodipodi-0.dtd"
   xmlns="http://www.w3.org/2000/svg"
   xmlns:svg="http://www.w3.org/2000/svg">
  <defs
     id="defs5402" />
  <sodipodi:namedview
     id="namedview5400"
     pagecolor="#ffffff"
     bordercolor="#111111"
     borderopacity="1"
     inkscape:pageshadow="0"
     inkscape:pageopacity="0"
     inkscape:pagecheckerboard="1"
     showgrid="false"
     inkscape:zoom="0.54512189"
     inkscape:cx="170.60405"
     inkscape:cy="-175.19018"
     inkscape:window-width="2530"
     inkscape:window-height="1516"
     inkscape:window-x="26"
     inkscape:window-y="23"
     inkscape:window-maximized="0"
     inkscape:current-layer="layer2"
     inkscape:snap-grids="false" />
  <g
     inkscape:groupmode="layer"
     id="layer1"
     inkscape:label="Layer 1"
     style="display:none"
     sodipodi:insensitive="true">
    <path
       d="M 386.95698,711.56627 C 388.56225,710.67319 390.30966,709.06242 393.89477,705.82238 397.48006,702.57234 399.85814,700.3321 404.89289,695.34624 409.93762,690.36056 413.28447,687.01648 419.07882,680.87326 424.87301,674.74004 428.04155,671.29295 433.8845,664.64048 439.71744,657.98783 442.82954,654.32976 448.27338,647.62056 453.70723,640.91117 456.52835,637.30822 461.07355,631.10394 465.62875,624.89983 467.81071,621.83616 471.01925,616.60949 474.22761,611.39283 475.66921,608.93678 477.13575,605.00093 478.60246,601.05508 478.99341,599.22141 478.34245,596.9001 477.70165,594.56898 476.52154,593.37892 473.92139,593.3651 471.33142,593.34145 469.51988,594.011 465.3821,596.81168 461.23447,599.60218 458.72792,601.75024 453.21263,607.35808 447.6875,612.95577 444.31444,616.66944 437.78596,624.83058 431.24751,632.99153 427.36124,638.07677 420.53047,648.15307 413.70967,658.22956 409.87908,664.16584 403.6622,675.20263 397.45514,686.2496 394.2704,692.43681 389.47535,703.37754 384.68028,714.31829 382.50249,720.10241 379.69686,729.90651 376.90124,739.71079 375.98046,744.49595 375.45737,752.38826 374.93412,760.29057 375.30456,763.82732 377.07111,769.38787 378.84747,774.9586 380.45981,777.20609 384.29956,780.22123 388.13929,783.23637 390.85643,784.02227 396.27976,784.46373 401.7131,784.90539 404.99341,784.32058 411.4362,782.42887 417.88916,780.52736 421.55898,778.78898 428.51425,774.97565 435.47949,771.16248 439.35462,768.51742 446.24247,763.36277 453.14015,758.21829 456.83491,755.00011 462.96317,749.22255 469.08139,743.44486 472.12793,740.11572 476.86368,734.47473 481.60959,728.82392 483.73968,725.86939 486.68219,720.99828 489.6247,716.12719 490.74348,713.83572 491.57623,710.11922 492.40899,706.40273 492.20818,704.6691 490.84612,702.40582 489.49407,700.14272 487.872,699.06523 484.78564,698.82318 481.69929,698.58113 479.48848,699.20396 475.39399,701.21524 471.30968,703.21669 468.84004,704.95531 464.35358,708.86025 459.86731,712.7552 457.21133,715.46082 452.97226,720.71012 448.73335,725.94943 446.41772,729.23088 443.15891,735.06679 439.90027,740.89269 438.30351,744.24626 436.65852,749.86935 435.02368,755.48258 434.57403,758.42542 434.96441,763.15267 435.36462,767.89008 436.12474,770.26324 438.6501,773.52625 441.17547,776.78927 443.23361,778.10415 447.5809,779.48762 451.92837,780.86108 454.71647,780.99809 460.38696,780.42359 466.05761,779.83905 469.36332,778.93464 475.92385,776.58487 482.49437,774.23527 486.18504,772.44721 493.19995,768.65491 500.22486,764.86275 504.10779,762.34784 511.01857,757.61364 517.92933,752.87942 521.54855,749.99002 527.76378,744.98406 533.97887,739.98808 537.05732,737.13955 542.09413,732.6238 547.12095,728.10788 549.80373,725.59273 552.90773,722.41459 556.01172,719.23646 557.04719,717.73369 557.59399,716.74278 558.14076,715.75184 557.01108,715.72281 555.66178,717.4503 554.31231,719.18781 553.10742,721.24779 550.86695,725.41063 548.62647,729.57347 546.86144,732.82417 544.45941,738.26447 542.04756,743.69459 540.56876,747.17016 538.82714,752.59159 537.08553,758.01301 536.26845,760.79962 535.74133,765.37139 535.22421,769.94333 535.17764,772.11284 536.21169,775.44075 537.24576,778.76865 538.32948,780.33713 540.92147,782.02105 543.51362,783.69498 545.47795,784.04813 549.15197,783.84003 552.81619,783.62175 555.00885,782.8886 559.2723,780.94017 563.54557,779.00192 565.95151,777.48226 570.47886,774.11807 575.01602,770.76406 577.5346,768.49619 581.93849,764.14979 586.35251,759.79355 588.68887,757.06254 592.53872,752.35677 596.38859,747.65097 598.25467,744.93203 601.20792,740.61118 604.17099,736.30051 605.61174,733.89445 607.32443,730.78287 609.04728,727.66148 609.32135,726.23589 609.79166,725.03364 610.26216,723.8214 609.66039,723.92127 609.6864,724.75184 609.70258,725.57222 609.1599,726.91327 609.8922,729.15592 610.61468,731.38842 611.16174,733.34791 613.30845,735.93446 615.445,738.53083 617.09931,740.06893 620.59561,742.09814 624.09175,744.13736 626.19644,745.06295 630.78944,746.1105 635.38243,747.15807 638.09766,747.46387 643.56059,747.33592 649.03354,747.20813 652.22116,746.7818 658.14392,745.48144 664.05686,744.17089 667.3551,743.11634 673.15506,740.79376 678.94502,738.471 682.06239,736.87331 687.11359,733.87802 692.17479,730.88288 694.71679,729.00545 698.44069,725.83776 702.16479,722.66008 703.91319,720.98931 705.73366,718.00956 707.56398,715.04 708.0224,713.35748 707.58257,710.96973 707.14259,708.59197 706.07734,707.11381 703.52423,706.09064 700.98109,705.06765 698.84191,705.00157 694.83714,705.84421 690.83237,706.68682 688.3252,707.68471 683.50071,710.28378 678.68623,712.88301 675.70411,714.76301 670.75471,718.84017 665.79529,722.91717 662.95849,725.66976 658.72346,730.6791 654.48827,735.69843 652.30717,738.71211 649.5689,743.92669 646.83047,749.15129 645.70241,751.99268 645.05161,756.78239 644.40097,761.56209 644.5478,764.12494 646.30534,767.8451 648.06274,771.57524 649.78248,773.38449 653.8287,775.42297 657.87508,777.45144 660.6661,778.00855 666.54695,778.00767 672.4178,778.00661 675.85675,777.50451 683.20313,775.408 690.54933,773.32152 694.82755,771.68338 703.26849,767.54504 711.71926,763.4169 716.37563,760.70498 725.4375,754.73685 734.48935,748.76856 739.35137,745.12999 748.578,737.69442 757.80462,730.25887 762.80892,725.89259 771.58077,717.54924 780.34248,709.21571 784.78207,704.52986 792.4068,696.00716 800.0415,687.48461 803.72936,682.89611 809.72437,674.93601 815.72937,666.97608 818.44757,662.95134 822.41181,656.20718 826.38619,649.4532 827.83891,646.33725 829.57581,641.19578 831.30288,636.04417 831.73107,633.78106 831.07696,630.45956 830.41284,627.1379 829.21965,625.53755 826.27541,624.57779 823.34133,623.60822 821.0566,623.86974 816.38591,625.65128 811.71522,627.43283 808.82798,629.02439 802.92231,633.46549 797.01644,637.9166 793.56385,641.00885 786.86715,647.87696 780.17044,654.74507 776.15566,659.14804 769.43864,667.81605 762.7216,676.4841 758.96364,681.67149 753.28196,691.2171 747.60011,700.7727 744.83965,706.11694 741.03006,715.55407 737.21065,724.98104 735.64659,729.9554 734.21402,738.40244 732.77148,746.84932 732.62087,751.03739 733.83691,757.80885 735.05314,764.5703 736.45254,767.58432 740.30463,772.23989 744.15672,776.89547 747.01716,778.67394 753.11718,781.09709 759.20721,783.52007 763.03942,784.01473 770.78461,784.3653 778.51996,784.70572 783.83506,783.85517 791.8133,782.83949 799.79156,781.8238 804.32148,780.67998 810.67585,779.28687 817.03025,777.89376 821.09837,776.85217 823.6052,775.87429 826.11205,774.8964 825.87657,774.0323 823.22004,774.39759 820.56351,774.76287 816.65608,776.35724 810.33236,777.71087 804.00848,779.07448 799.49907,780.18864 791.60097,781.19568 783.70288,782.20271 778.42763,783.06393 770.8519,782.7462 763.27619,782.42848 759.57463,781.89603 753.70255,779.59674 747.84063,777.28762 745.19797,775.64285 741.51165,771.24009 737.81549,766.82718 736.4417,764.07364 735.23144,757.5523 734.02135,751.021 734.08045,746.9214 735.45066,738.61332 736.82104,730.29523 738.33476,725.34004 742.09299,715.98204 745.85141,706.61405 748.58172,701.27931 754.24238,691.79336 759.90287,682.31743 763.66067,677.14001 770.38636,668.55214 777.11188,659.97427 781.14615,655.60164 787.87049,648.87401 794.59482,642.14638 798.1359,639.14563 803.99771,634.93384 809.85969,630.71201 812.87253,629.3826 817.19005,627.78514 821.50776,626.17768 823.23601,626.29682 825.58606,626.90651 827.92595,627.52604 828.43611,628.11471 828.90986,630.86309 829.3836,633.61146 829.46785,635.73318 827.93464,640.65804 826.40125,645.59291 825.07683,648.81104 821.25309,655.52756 817.42919,662.25406 814.75062,666.2995 808.82562,674.26078 802.90077,682.21206 799.23275,686.81088 791.63819,695.3241 784.05363,703.83748 779.6342,708.51368 770.88285,716.82737 762.14166,725.13123 757.13753,729.48752 747.92175,736.87324 738.69597,744.25881 733.84429,747.87757 724.79378,753.76586 715.74325,759.65417 711.07771,762.31594 702.67897,766.32494 694.27021,770.3338 689.98368,771.87177 682.75999,773.81032 675.53646,775.73885 672.14037,776.07166 666.56099,775.98762 660.97162,775.9034 658.48293,775.21136 654.85311,773.38992 651.21346,771.55835 649.91724,770.13629 648.38208,766.86996 646.85691,763.60378 646.59283,761.46904 647.18709,757.06843 647.78133,752.66781 648.73856,749.87354 651.34348,744.85673 653.94857,739.82993 656.06951,736.82524 660.22219,731.95453 664.36486,727.08366 667.19099,724.37091 672.08704,720.49287 676.97325,716.60465 679.99317,714.85532 684.67314,712.52386 689.34291,710.20223 691.88335,709.60494 695.46615,708.87523 699.04896,708.1455 700.63521,708.38227 702.59733,708.8654 704.5593,709.35855 705.12197,709.79809 705.27633,711.3209 705.43051,712.85372 705.04185,713.95734 703.36861,716.50949 701.68536,719.0615 700.3632,720.95948 696.91008,724.08173 693.44697,727.2038 690.95396,729.14207 686.06323,732.11006 681.16236,735.08788 678.08515,736.67625 672.41618,738.94102 666.74721,741.20581 663.47963,742.22088 657.69837,743.43362 651.92694,744.65654 648.79047,745.01374 643.52938,745.03507 638.27843,745.04658 635.66452,744.66248 631.43317,743.52099 627.2018,742.37952 625.29843,741.37731 622.37272,739.31769 619.44718,737.2481 618.56529,735.57301 616.81514,733.19317 615.075,730.8135 614.82066,729.289 613.65201,727.41903 612.47335,725.5489 612.04045,724.53148 610.96223,723.82319 609.87403,723.11475 609.45963,722.77772 608.23078,723.88718 607.0019,724.99661 606.59038,726.26987 604.80804,729.36027 603.02554,732.46066 602.09218,735.02531 599.32875,739.35935 596.55514,743.70322 594.7194,746.40267 590.95037,751.0598 587.18134,755.71696 584.84548,758.41795 580.47364,762.64488 576.11161,766.88197 573.57439,769.06953 569.11057,772.22475 564.64659,775.38996 562.21351,776.73914 558.17391,778.4613 554.14449,780.17364 552.09719,780.5892 548.96308,780.80641 545.81915,781.01345 544.53337,780.75174 542.50388,779.51738 540.4744,778.28299 539.68901,777.40963 538.81583,774.62452 537.94247,771.84941 537.70537,769.89514 538.14728,765.63198 538.58919,761.36882 539.29646,758.57034 541.04536,753.30906 542.79413,748.05778 544.39138,744.67423 546.88103,739.37544 549.37085,734.06664 551.31316,730.97894 553.49382,726.8051 555.6743,722.64126 557.08664,720.73478 557.76378,718.5359 558.44077,716.34699 558.17682,715.39241 556.8889,715.85075 555.601,716.30911 554.51688,717.73106 551.32425,720.82768 548.13143,723.93431 545.82355,726.75583 540.92536,731.35393 536.01718,735.95187 532.95857,738.81072 526.81346,743.80786 520.65822,748.81484 517.04917,751.69443 510.17925,756.37931 503.29931,761.06403 499.41688,763.54896 492.44366,767.24196 485.47043,770.93495 481.77112,772.64287 475.32294,774.85451 468.87457,777.07613 465.59138,777.83092 460.18255,778.30983 454.78353,778.79891 452.22793,778.51579 448.27839,777.26906 444.33868,776.03248 442.70643,774.96483 440.47429,772.1068 438.24215,769.24878 437.48478,767.30574 437.10782,762.96877 436.72085,758.63163 437.00851,755.80609 438.54964,750.41129 440.09079,745.01649 441.61738,741.67174 444.80367,735.98463 447.99997,730.2977 450.3051,727.04609 454.52114,721.97641 458.72735,716.89658 461.4418,714.28196 465.86388,710.63596 470.27594,706.9898 472.84153,705.49283 476.61168,703.73612 480.37165,701.98923 482.21325,701.91026 484.67423,701.87174 487.12508,701.84303 487.9721,702.02733 488.89616,703.57313 489.82025,705.11892 490.06034,706.30314 489.29465,709.60069 488.52896,712.89826 487.80861,715.28647 485.08792,720.05128 482.35707,724.82594 480.28577,727.85147 475.66036,733.47431 471.03494,739.09715 468.01856,742.41678 461.96083,748.16552 455.89326,753.90408 452.20883,757.10244 445.36232,762.17777 438.51564,767.2631 434.63135,769.858 427.74794,773.56253 420.86454,777.26704 417.19657,778.89545 410.93545,780.69021 404.67413,782.49493 401.53615,782.94211 396.43177,782.56604 391.32755,782.17995 388.97816,781.53027 385.40368,778.79963 381.82919,776.06901 380.28076,774.18264 378.54932,768.91271 376.80773,763.65262 376.28562,760.21333 376.73619,752.46981 377.17674,744.72614 378.01754,739.93964 380.75199,730.20433 383.47645,720.46889 385.63425,714.68441 390.38864,703.783 395.14304,692.88157 398.31776,686.6942 404.53398,675.6974 410.74036,664.69044 414.58062,658.77431 421.43022,648.76833 428.29,638.75252 432.19591,633.68762 438.80217,625.65783 445.40844,617.62802 448.8705,613.97585 454.45171,608.60914 460.03296,603.24244 462.78459,601.38855 466.70871,598.80431 470.63281,596.22008 472.14681,595.99556 474.07209,595.69798 475.9974,595.40038 476.13384,595.6127 476.32515,597.31617 476.51665,599.00964 476.38103,600.52757 475.01886,604.20514 473.65653,607.8927 472.54235,610.5043 469.50429,615.70384 466.47605,620.91354 464.33343,624.01787 459.86821,630.22349 455.40283,636.43913 452.60155,640.05243 447.18802,646.74215 441.78433,653.44202 438.67224,657.10009 432.81015,663.70224 426.95805,670.30456 423.7602,673.71115 417.91737,679.76353 412.06436,685.82574 408.66871,689.09898 403.5755,693.99385 398.48246,698.87871 395.99691,700.96711 392.45127,704.23783 388.90582,707.49853 386.96266,708.85598 385.86786,710.31773 384.76291,711.78931 385.35153,712.46934 386.95698,711.56627"
       style="fill:#ff0000;stroke:#ff0000;stroke-width:7;stroke-miterlimit:4;stroke-dasharray:none"
       id="path5393" />
    <path
       d="M 1042.5515,703.17511 C 1019.7692,688.73169 993.20314,714.89696 975.91449,728.8663 952.81573,742.42632 942.63577,789.25886 982.1889,781.27175 1029.8084,773.34257 1073.3504,749.52235 1113.7855,724.122 1119.5606,704.65717 1079.7377,738.89227 1075.2043,750.4448 1050.7407,776.33165 1089.0118,794.02155 1108.0203,773.18634 1127.3332,764.29125 1147.0723,727.34603 1120.4883,717.70864 1140.136,726.08726 1166.4105,715.25501 1188.4815,715.80445 1210.239,709.08705 1224.0989,726.50484 1203.4533,741.77893 1194.9574,748.90936 1172.2724,778.30505 1197.2004,762.29234 1218.8432,748.40085 1240.2601,731.25132 1266.0781,726.52607 1256.7656,740.69986 1227.8244,780.31014 1265.2956,758.2876 1281.1545,751.99442 1314.2008,724.92226 1323.5397,737.26805 1304.1282,755.37913 1300.6198,796.80063 1336.3745,772.92638 1362.6961,759.86906 1385.4952,741.04075 1410.7496,726.20932 1385.0469,771.60674 1357.266,816.16934 1326.1313,858.0475 1345.823,806.39643 1383.0404,761.01046 1429.092,730.5949 1442.4196,716.75403 1487.0754,713.71111 1468.0028,742.83657 1455.2402,760.86949 1431.0466,778.51025 1410.4271,777.17585 1441.5432,749.24359 1483.4769,737.72013 1518.2924,715.20429 1542.5437,698.51321 1574.9323,684.28518 1585.737,655.23418 1563.2913,637.2739 1533.912,676.8904 1517.633,692.80105 1500.3105,713.35391 1469.642,760.14466 1507.1274,775.61321 1539.9796,779.39633 1571.9403,760.24106 1594.7835,738.11521 1608.6538,708.9632 1563.069,731.90818 1558.9431,748.11607 1537.5377,790.81705 1602.4464,778.57976 1620.706,761.72237 1663.8541,736.33869 1703.574,703.58895 1734.6628,664.31647 1716.1936,675.52468 1699.3875,712.76306 1683.067,734.26727 1675.1531,749.59179 1657.2585,770.89708 1656.69,784.3086 1677.5255,740.73866 1706.2489,701.1478 1734.5594,662.46764 1698.5228,706.40277 1653.9757,745.62137 1601.7722,769.31808 1581.7743,784.68037 1537.7722,772.59276 1564.8056,744.34805 1569.1894,729.59382 1612.7349,716.59092 1589.2064,740.95608 1566.0742,761.14329 1533.7445,780.77927 1502.0898,771.75128 1474.5176,748.1883 1505.8426,709.9127 1522.7192,688.92813 1535.3662,676.00366 1569.5108,639.33703 1582.8693,658.22429 1565.7657,689.26793 1531.0778,705.21849 1501.9181,722.95975 1472.2896,739.92388 1439.5886,751.60513 1411.4272,770.99366 1405.6802,795.15245 1449.814,766.61703 1458.7486,757.18918 1481.9947,745.72302 1479.7519,705.06256 1448.495,719.93374 1400.5183,739.62619 1366.4686,782.60465 1339.2618,825.21771 1329.6772,834.25744 1317.1813,876.15789 1337.0607,846.88148 1361.947,808.45333 1387.2814,770.23032 1411.1699,731.20195 1406.1676,716.09626 1379.7464,749.11937 1367.1263,752.8172 1352.7614,759.69711 1319.23,788.40753 1310.1768,770.33472 1315.121,757.64006 1342.3464,720.35174 1309.4012,733.39512 1290.3848,739.65471 1257.8367,763.95958 1247.9773,760.23972 1257.514,750.59637 1282.9549,713.96096 1251.2603,728.20867 1231.5483,736.03356 1194.8432,761.54809 1188.5233,763.81515 1202.2684,750.24223 1237.9158,709.74228 1195.2608,713.2769 1170.3992,715.14622 1145.3758,718.66672 1120.597,717.09953 1143.5087,736.82035 1119.8566,769.60327 1095.4514,776.73685 1057.8721,791.36728 1072.4838,744.75507 1092.6748,734.06664 1099.7538,726.14377 1129.6034,711.172 1105.6566,727.35615 1066.5024,751.423 1024.1115,775.05683 977.61964,779.61224 935.08696,778.97771 968.21791,731.06699 988.2971,720.38183 1003.5848,707.52485 1024.5621,698.48281 1042.5515,703.17511 Z"
       style="fill:#ff0000;stroke:#ff0000;stroke-width:7;stroke-miterlimit:4;stroke-dasharray:none"
       id="path5395" />
    <path
       d="M 1631.0756,774.82206 C 1631.5119,775.43368 1631.9125,776.01023 1633.6206,776.46999 1635.3384,776.92826 1636.4864,777.22999 1639.655,777.11492 1642.8248,777.00973 1644.8928,776.70708 1649.4656,775.91437 1654.0485,775.12015 1656.8897,774.57922 1662.5488,773.14683 1668.1999,771.72584 1671.4146,770.84525 1677.7392,768.79644 1684.0738,766.74615 1687.5484,765.51268 1694.1839,762.91118 1700.8182,760.29978 1704.4561,758.80901 1710.9341,755.76614 1717.4202,752.71188 1720.8041,750.94601 1726.6195,747.66956 1732.4267,744.40447 1735.3521,742.6169 1739.9959,739.41653 1744.6508,736.22455 1746.8622,734.59556 1749.8492,731.67607 1752.8474,728.765 1754.0715,727.29543 1754.9863,724.85115 1755.8897,722.39849 1755.5855,720.98813 1754.3777,719.42113 1753.1794,717.85265 1751.7737,716.98309 1748.965,717.00329 1746.1564,717.02352 1744.1029,717.68807 1740.325,719.52367 1736.5371,721.36074 1734.1776,722.88062 1730.054,726.17432 1725.9186,729.45961 1723.4961,731.69705 1719.6813,735.96547 1715.8669,740.23387 1713.7473,742.87047 1710.9922,747.52477 1708.2456,752.16768 1706.9419,754.78204 1705.9218,759.20432 1704.9031,763.63648 1704.7526,765.9854 1705.8942,769.65592 1707.0246,773.31808 1708.2941,775.15893 1711.606,777.53036 1714.9164,779.89189 1717.306,780.71377 1722.4262,781.4666 1727.5579,782.2278 1730.7414,782.08009 1737.2294,781.31125 1743.7288,780.55081 1747.5515,779.67939 1754.8904,777.64915 1762.2279,775.60899 1766.3395,774.10727 1773.921,771.1402 1781.5026,768.17314 1785.601,766.24864 1792.7982,762.81375 1799.9874,759.39029 1803.6988,757.38271 1809.9121,753.99549 1816.1156,750.6098 1819.0944,748.77373 1823.8157,745.88524 1828.5481,743.0052 1830.6922,741.80103 1833.5337,739.59128 1836.3766,737.39142 1837.2656,736.44788 1838.0276,734.86615 1838.7896,733.28442 1838.4465,732.48677 1837.3324,731.6742 1836.2186,730.86166 1834.9011,730.44393 1832.4574,730.80341 1830.0139,731.16287 1828.2671,731.85179 1825.1041,733.47302 1821.941,735.09426 1820.0831,736.38657 1816.6305,738.90114 1813.1889,741.42415 1811.1878,742.97078 1807.8742,746.07114 1804.5606,749.17149 1802.767,751.02053 1800.0622,754.40298 1797.3593,757.79532 1795.9888,759.70169 1794.3456,763.01465 1792.7041,766.33747 1791.9287,768.164 1791.8712,770.9944 1791.8121,773.8149 1792.3509,775.37185 1794.0344,777.14001 1795.7275,778.90668 1797.2438,779.76965 1800.3145,779.81095 1803.3866,779.86211 1805.3385,779.19272 1809.3908,777.36622 1813.432,775.5313 1815.7741,774.1657 1820.5622,770.6502 1825.3518,767.14456 1828.1123,764.86615 1833.3232,759.79998 1838.5442,754.73228 1841.3728,751.63449 1846.647,745.31473 1851.923,739.00486 1854.6648,735.33359 1859.6877,728.22251 1864.7223,721.11981 1867.3122,717.17823 1871.7867,709.78597 1876.2715,702.3922 1878.4311,698.41456 1882.085,691.27792 1885.7389,684.14129 1887.3478,680.46941 1890.0646,674.09144 1892.7817,667.71346 1893.9314,664.61672 1895.6677,659.37816 1897.4022,654.12977 1898.3978,651.34965 1898.7525,647.87755 1899.1072,644.40548 1898.6495,642.71493 1897.4201,642.01083 1896.2025,641.31509 1894.8239,641.6955 1892.6213,644.38514 1890.4203,647.08461 1889.2381,649.7008 1886.4331,655.49539 1883.6181,661.2915 1881.7189,665.45227 1878.5695,673.38241 1875.4215,681.32243 1873.4922,686.28675 1870.6768,695.15747 1867.8516,704.02966 1866.3353,708.98212 1864.4823,717.72755 1862.6291,726.47299 1861.8092,731.01666 1861.4047,738.90588 1861.0081,746.78374 1861.1053,750.70329 1862.4719,757.1312 1863.8399,763.56901 1864.9897,766.48993 1868.2374,771.04552 1871.4752,775.60257 1873.7615,777.41105 1878.6908,779.91205 1883.6104,782.41454 1886.7014,783.05956 1892.8532,783.54511 1899.0148,784.02917 1903.1877,783.26659 1909.4694,782.33682 1915.7611,781.40553 1919.2891,780.32582 1924.2925,778.90163 1929.2844,777.46904 1932.5255,776.23047 1934.4532,775.20062 1936.391,774.1693 1936.0985,773.37405 1933.9577,773.7282 1931.8149,774.07246 1928.7136,775.63378 1923.7547,776.95012 1918.7957,778.26645 1915.313,779.37975 1909.1629,780.30986 1903.0141,781.24988 1898.9249,782.03014 1892.9972,781.62195 1887.0683,781.20386 1884.1904,780.56698 1879.5213,778.24915 1874.8523,775.93128 1872.7572,774.31641 1869.6518,770.03261 1866.5546,765.73745 1865.3741,763.01337 1864.0108,756.80747 1862.646,750.59167 1862.4657,746.72512 1862.8206,738.9749 1863.1842,731.21327 1863.9661,726.68547 1865.8097,718.01225 1867.652,709.32912 1869.1601,704.38805 1872.0382,695.59887 1874.9049,686.8013 1876.8882,681.85914 1880.1658,674.04109 1883.4422,666.21316 1885.4704,662.10365 1888.4029,656.48196 1891.3267,650.87164 1893.0893,648.68347 1894.7896,645.94849 1896.4896,643.2135 1896.6222,642.48547 1896.912,642.79566 1897.1918,643.10733 1896.8563,644.30089 1896.2278,647.50086 1895.6093,650.69932 1895.3189,653.59529 1893.7876,658.78263 1892.2574,663.97986 1891.1841,667.11562 1888.5859,673.47563 1885.9893,679.84554 1884.3986,683.50456 1880.8025,690.62232 1877.2064,697.74009 1875.0569,701.71625 1870.6056,709.06447 1866.1461,716.4241 1863.5647,720.3543 1858.5325,727.40605 1853.5106,734.45632 1850.7542,738.09944 1845.4649,744.32031 1840.1757,750.54118 1837.3199,753.59254 1832.0836,758.49062 1826.837,763.39023 1824.0324,765.57423 1819.2631,768.81381 1814.5039,772.05191 1812.0467,773.19215 1808.2475,774.68707 1804.4483,776.182 1802.73,776.18902 1800.2685,776.29831 1797.7989,776.41897 1796.9721,776.3013 1795.9286,775.28591 1794.8934,774.25917 1794.8197,773.37021 1795.0662,771.18881 1795.3143,769.01732 1795.7265,767.39743 1797.1741,764.39721 1798.6219,761.39702 1799.7893,759.42021 1802.3143,756.18629 1804.8473,752.94101 1806.5833,751.11085 1809.8234,748.19353 1813.0539,745.27768 1815.0654,743.80026 1818.4853,741.60418 1821.9056,739.40805 1823.927,738.59665 1826.9237,737.21296 1829.9288,735.8179 1831.5028,735.45849 1833.4817,734.6333 1835.4608,733.80811 1836.2253,733.24746 1836.8164,733.07714 1837.4062,732.89693 1837.4101,732.85589 1836.4332,733.75205 1835.4561,734.64823 1834.6748,735.4339 1831.9387,737.53671 1829.2105,739.62816 1827.3415,741.24584 1822.7797,744.2518 1818.2179,747.25774 1815.2434,749.12349 1809.1198,752.56795 1802.9844,756.00402 1799.2844,758.01997 1792.1364,761.44736 1784.9871,764.86488 1780.8987,766.78784 1773.3591,769.69802 1765.8194,772.60817 1761.7134,774.07872 1754.44,776.00805 1747.1767,777.93586 1743.3488,778.70689 1737.014,779.35143 1730.6875,779.98458 1727.5705,779.97054 1722.781,779.19804 1717.99,778.41564 1715.9649,777.52852 1713.0739,775.46764 1710.1736,773.40821 1709.2797,772.04653 1708.3192,768.90485 1707.3486,765.76468 1707.3339,763.79473 1708.2596,759.75087 1709.1952,755.70546 1710.3339,753.13629 1712.9691,748.6923 1715.594,744.24978 1717.6742,741.61917 1721.4169,737.54369 1725.1579,733.4583 1727.6237,731.30538 1731.6893,728.29361 1735.7462,725.29321 1738.2125,724.08076 1741.7169,722.50907 1745.2213,720.93737 1747.0023,720.80962 1749.2323,720.442 1751.4624,720.07438 1752.2017,720.01318 1752.8688,720.68089 1753.5263,721.35009 1753.4958,721.95141 1752.5409,723.79495 1751.5973,725.64691 1750.8513,727.13516 1748.1081,729.92678 1745.3761,732.72678 1743.3261,734.55385 1738.8497,737.78962 1734.3747,741.03528 1731.4733,742.84954 1725.7513,746.14219 1720.0179,749.42646 1716.6568,751.20914 1710.2172,754.23613 1703.7773,757.26313 1700.1677,758.73953 1693.554,761.28711 1686.9406,763.8347 1683.4714,765.03699 1677.1685,766.96115 1670.865,768.88535 1667.6431,769.71648 1662.027,770.8996 1656.4025,772.0941 1653.5728,772.51191 1649.0717,772.90946 1644.582,773.3154 1642.5602,772.85252 1639.5356,772.91553 1636.5194,772.96714 1635.5871,773.08792 1633.9741,773.19025 1632.3613,773.29258 1632.0486,773.09716 1631.4715,773.42717 1630.8928,773.74729 1630.6505,774.21881 1631.0756,774.82206"
       style="fill:#ff0000;stroke:#ff0000;stroke-width:7;stroke-miterlimit:4;stroke-dasharray:none"
       id="path5397" />
    <path
       style="fill:#ff0000;stroke:#ff0000;stroke-width:1px;stroke-linecap:butt;stroke-linejoin:miter;stroke-opacity:1"
       d="M 363.50885,785.03578 H 1985.1613"
       id="path5632" />
  </g>
  <g
     inkscape:groupmode="layer"
     id="layer2"
     inkscape:label="Layer 2"
     style="display:inline">
    <path
       style="fill:none;stroke:#000000;stroke-width:1px;stroke-linecap:butt;stroke-linejoin:miter;stroke-opacity:1"
       d="M 392.65196,706.83805 C 417.09284,688.62449 433.57661,663.61165 450.17304,644.52129 466.76946,625.43092 499.17209,569.75322 459.90987,602.88335 420.64765,636.01349 377.82287,715.80497 375.78032,764.18114 377.55335,788.32327 408.82756,787.62154 428.7794,776.04223 448.73124,764.46292 477.406,736.33038 489.34212,717.80908 501.27824,699.28778 474.44012,700.88822 463.38277,709.86782 452.32542,718.84742 437.01966,736.94883 437.28121,768.17592 437.54276,799.40301 472.32242,777.80127 491.54104,768.36415 510.75966,758.92703 535.47037,737.4577 554.23266,720.67946 547.40736,736.35228 523.49047,772.66006 544.87114,784.38914 562.96177,785.93042 587.92806,755.324 591.66934,751.87328 595.41061,748.42256 606.33912,731.89622 609.8654,725.74558 620.59021,758.10973 657.71599,749.17184 678.39048,738.56238 688.34197,733.45561 728.63259,702.30901 692.6117,708.169 672.54619,712.65021 634.53917,754.3366 648.93335,777.57518 656.47208,789.74603 669.84896,782.60689 691.6681,773.2858 713.48724,763.96471 730.23248,741.9964 747.53489,725.712 764.8373,709.4276 777.87648,696.09916 790.2384,681.13489 802.60032,666.17062 811.35908,656.08487 813.22716,633.84475 795.73331,620.21655 753.4802,689.53522 744.77291,707.10019 735.33398,726.33403 731.92925,750.72377 739.46238,769.89187 746.99551,789.05996 774.56138,786.95963 792.71869,784.13368 801.63384,782.74615 823.27163,776.54882 825.22359,774.91338"
       id="path9777"
       sodipodi:nodetypes="czzczzzzzcczcacazzzcczsc" />
    <path
       id="path27118"
       style="fill:none;stroke:#000000;stroke-width:1px;stroke-linecap:butt;stroke-linejoin:miter;stroke-opacity:1"
       d="M 993.8868,701.80482 C 964.5712,691.79043 903.976,721.16105 910.9857,764.78242 917.9955,808.40378 986.5123,772.37578 1017.6999,754.95797 1036.1938,744.6294 1068.5945,725.89246 1072.7162,717.74841 1077.6926,707.65259 1052.2737,726.81314 1044.6774,734.64776 1035.1103,744.51501 1020.2415,757.53232 1024.4945,770.60147 1027.6509,780.30082 1043.86,786.61955 1052.3084,783.35891 1063.7472,778.9441 1079.2893,766.7503 1084.0225,752.29861 1088.7558,737.84691 1083.6485,723.18527 1076.597,717.09953 1106.0371,721.59677 1154.4746,689.81274 1170.477,716.70534 1183.6062,738.76921 1118.0569,773.86121 1130.413,785.44449 1143.9271,770.67557 1267.2836,668.87264 1209.3739,744.0608 1198.3074,757.03606 1182.8815,774.85593 1168.2538,784.11108 1176.9453,778.97409 1185.0822,765.1482 1194.9845,758.11196 1208.3203,748.63598 1214.3173,744.0742 1227.4138,734.25494 1279.1061,683.1669 1203.9429,775.62746 1226.3232,787.95333 1241.9278,795.37862 1244.191,803.60693 1303.3831,743.21158 1364.5807,677.56433 1285.0538,768.64386 1280.3775,780.78316 1266.8068,805.17715 1246.8622,838.22411 1223.0088,853.75854 1245.8695,810.99248 1284.0419,766.7133 1320.9034,735.32998 1336.2486,716.16601 1388.5244,714.2685 1369.0981,749.06565 1352.6196,766.46572 1310.4011,793.96395 1287.1073,780.99567 1322.6699,782.91574 1375.823,743.2522 1406.15,722.3622 1433.8494,704.12121 1446.3414,688.84945 1479.4007,650.51884 1452.4615,663.62308 1422.7192,688.92813 1403.2124,714.43154 1382.0721,742.60773 1367.4084,790.27728 1389.3928,784.80913 1405.5292,780.79554 1435.0937,771.01874 1459.0544,759.64061 1483.0152,748.26248 1519.0969,723.70215 1495.0935,724.86415 1418.2597,742.37708 1439.6615,802.35167 1479.4548,781.03272 1539.8987,756.93141 1596.764,712.71933 1634.6628,664.31647 1604.1408,694.36311 1572.8546,754.89664 1554.2337,786.54677 1582.3368,739.95367 1553.3985,749.45779 1551.3354,752.65006 1624.4928,776.41854 1719.2061,706.176 1645.652,726.21225 1595.9802,747.12803 1604.6058,763.50974 1607.6089,782.1454 1613.8167,796.18378 1668.5885,751.0882 1684.6704,746.0743 1696.2244,741.23303 1730.7829,732.73084 1732.132,728.36807 1734.3152,721.30712 1709.8018,728.86995 1701.3056,735.06535 1686.8917,745.57585 1670.5212,764.79536 1674.4994,781.38494 1681.3061,796.47801 1718.9223,750.93812 1737.8313,732.66792 1747.2058,722.6534 1762.5622,714.26381 1770.2437,702.89916 1777.0004,692.90264 1791.1195,664.92055 1785.5431,666.71309 1762.0062,674.70968 1754.0788,701.6148 1744.2329,721.12952 1734.0672,741.27816 1722.4076,761.8103 1730.0687,784.86384 1741.0124,810.21207 1778.4785,736.27514 1794.6932,746.57626"
       sodipodi:nodetypes="csscsssscscccscccccccccccssccccccccsaccscscc" />
  </g>
</svg>
